<svg xmlns="http://www.w3.org/2000/svg" width="1200" height="760" viewBox="0 0 1200 760" role="img" aria-label="Apex Meridian executive command center preview">
  <rect width="1200" height="760" fill="#f7f6f1"/>
  <rect x="32" y="32" width="220" height="696" rx="8" fill="#fbfaf6" stroke="#d9ded7"/>
  <rect x="284" y="36" width="884" height="190" rx="8" fill="#26302f"/>
  <text x="318" y="94" fill="#f4d19a" font-size="18" font-family="Arial" font-weight="700">APEX MERIDIAN BANK</text>
  <text x="318" y="158" fill="#fffdf7" font-size="56" font-family="Arial" font-weight="800">Executive Command Center</text>
  <rect x="284" y="254" width="204" height="120" rx="8" fill="#ffffff" stroke="#d9ded7"/>
  <rect x="510" y="254" width="204" height="120" rx="8" fill="#ffffff" stroke="#d9ded7"/>
  <rect x="736" y="254" width="204" height="120" rx="8" fill="#ffffff" stroke="#d9ded7"/>
  <rect x="962" y="254" width="206" height="120" rx="8" fill="#ffffff" stroke="#d9ded7"/>
  <text x="310" y="302" fill="#64716f" font-size="16" font-family="Arial">7D Transactions</text>
  <text x="310" y="346" fill="#16201f" font-size="34" font-family="Arial" font-weight="800">128.45M</text>
  <text x="536" y="302" fill="#64716f" font-size="16" font-family="Arial">Loss Avoided</text>
  <text x="536" y="346" fill="#16201f" font-size="34" font-family="Arial" font-weight="800">$24.84M</text>
  <text x="762" y="302" fill="#64716f" font-size="16" font-family="Arial">Gold Quality</text>
  <text x="762" y="346" fill="#16201f" font-size="34" font-family="Arial" font-weight="800">98.4%</text>
  <text x="988" y="302" fill="#64716f" font-size="16" font-family="Arial">Pipeline SLA</text>
  <text x="988" y="346" fill="#16201f" font-size="34" font-family="Arial" font-weight="800">99.63%</text>
  <rect x="284" y="402" width="604" height="326" rx="8" fill="#ffffff" stroke="#d9ded7"/>
  <rect x="912" y="402" width="256" height="326" rx="8" fill="#ffffff" stroke="#d9ded7"/>
  <g fill="#00796b">
    <rect x="326" y="620" width="48" height="70" rx="6"/>
    <rect x="404" y="590" width="48" height="100" rx="6"/>
    <rect x="482" y="548" width="48" height="142" rx="6"/>
    <rect x="560" y="570" width="48" height="120" rx="6"/>
    <rect x="638" y="500" width="48" height="190" rx="6"/>
    <rect x="716" y="532" width="48" height="158" rx="6"/>
    <rect x="794" y="612" width="48" height="78" rx="6"/>
  </g>
  <circle cx="1040" cy="550" r="92" fill="#00796b"/>
  <circle cx="1040" cy="550" r="62" fill="#ffffff"/>
  <text x="1006" y="560" fill="#16201f" font-size="28" font-family="Arial" font-weight="800">18.7</text>
</svg>

